<?xml version="1.0" standalone="no"?>
<!DOCTYPE svg PUBLIC "-//W3C//DTD SVG 20010904//EN"
 "http://www.w3.org/TR/2001/REC-SVG-20010904/DTD/svg10.dtd">
<svg version="1.0" xmlns="http://www.w3.org/2000/svg"
 width="500.000000pt" height="500.000000pt" viewBox="0 0 500.000000 500.000000"
 preserveAspectRatio="xMidYMid meet">

<g transform="translate(0.000000,500.000000) scale(0.100000,-0.100000)"
fill="#000000" stroke="none">
<path d="M635 3006 c-146 -46 -267 -148 -328 -277 -71 -147 -72 -310 -2 -458
62 -131 207 -248 346 -280 75 -18 210 -13 281 9 211 65 368 277 368 495 -1
226 -142 425 -357 501 -55 19 -87 23 -168 23 -55 0 -118 -6 -140 -13z m38
-351 c27 -15 54 -36 60 -46 17 -27 30 -23 24 7 -4 21 -1 25 17 22 13 -2 22
-12 24 -27 4 -23 4 -23 18 -3 7 11 35 32 61 47 27 15 61 39 77 54 l28 26 -7
-25 c-20 -63 -62 -125 -94 -136 -17 -5 -29 -13 -25 -16 3 -4 3 -16 -1 -29 -5
-15 -10 -18 -15 -9 -5 8 -9 7 -13 -4 -4 -10 2 -25 13 -36 16 -16 17 -20 4 -20
-9 0 -12 -5 -8 -12 3 -7 -5 -1 -19 13 -18 19 -24 34 -21 55 l4 29 -12 -30 -11
-30 -14 35 -13 35 6 -35 c4 -19 8 -46 9 -60 2 -14 4 -27 4 -29 1 -2 7 2 14 8
21 17 51 -19 32 -36 -11 -10 -16 -10 -21 -1 -5 8 -10 6 -15 -8 -7 -18 -8 -18
-8 0 -1 16 -3 17 -18 5 -11 -10 -14 -10 -9 -1 4 7 1 12 -9 12 -13 0 -12 4 5
22 11 12 20 27 20 34 0 13 -25 13 -37 -1 -4 -4 -2 -5 5 -1 6 4 12 3 12 -2 0
-16 -12 -21 -25 -9 -11 10 -10 15 2 29 15 17 7 48 -13 51 -5 1 -9 10 -8 20 0
9 -7 17 -15 17 -9 0 -31 17 -48 37 -34 39 -42 59 -20 48 6 -4 5 -1 -4 7 -16
13 -39 51 -39 64 0 4 12 -4 28 -18 15 -14 49 -38 75 -53z m-96 -375 c1 -11 -2
-20 -5 -20 -4 0 -8 9 -9 20 -1 11 2 20 5 20 4 0 8 -9 9 -20z m47 5 c-4 -8 -8
-15 -10 -15 -2 0 -4 7 -4 15 0 8 4 15 10 15 5 0 7 -7 4 -15z m62 4 c3 -6 1
-16 -6 -22 -10 -9 -11 -9 -5 2 4 8 2 17 -6 22 -9 6 -10 9 -2 9 6 0 15 -5 19
-11z m54 -4 c0 -8 -7 -15 -15 -15 -16 0 -20 12 -8 23 11 12 23 8 23 -8z m44 0
c-4 -8 -8 -15 -10 -15 -2 0 -4 7 -4 15 0 8 4 15 10 15 5 0 7 -7 4 -15z m100 0
c3 -9 0 -15 -9 -15 -9 0 -12 6 -9 15 4 8 7 15 9 15 2 0 5 -7 9 -15z m44 -10
c-3 -3 -9 2 -12 12 -6 14 -5 15 5 6 7 -7 10 -15 7 -18z m62 5 c0 -5 -4 -10
-10 -10 -5 0 -10 5 -10 10 0 6 5 10 10 10 6 0 10 -4 10 -10z"/>
<path d="M668 2593 c7 -3 16 -2 19 1 4 3 -2 6 -13 5 -11 0 -14 -3 -6 -6z"/>
<path d="M868 2593 c7 -3 16 -2 19 1 4 3 -2 6 -13 5 -11 0 -14 -3 -6 -6z"/>
<path d="M2162 2683 c-35 -17 -77 -79 -92 -135 -24 -85 -16 -249 10 -233 6 3
7 0 5 -7 -7 -17 29 -56 62 -69 81 -31 171 21 204 118 21 59 18 231 -4 271 -36
66 -116 89 -185 55z m89 -95 c15 -28 6 -175 -12 -214 -16 -32 -47 -43 -60 -22
-5 7 -9 39 -9 70 0 134 47 230 81 166z"/>
<path d="M3512 2685 c-3 -5 -8 -75 -12 -155 -6 -146 -16 -190 -46 -190 -8 0
-20 11 -26 25 -10 22 -17 25 -66 25 l-55 0 7 -42 c13 -83 64 -124 146 -116
118 12 160 103 160 350 l0 106 -51 4 c-28 1 -54 -1 -57 -7z"/>
<path d="M1480 2673 c-62 -32 -95 -121 -71 -187 6 -13 37 -43 69 -65 64 -43
79 -65 61 -87 -16 -19 -33 -18 -81 6 -23 11 -43 20 -45 20 -6 0 -33 -60 -33
-73 0 -19 66 -48 125 -54 92 -10 151 33 162 115 7 54 -16 93 -83 143 -62 46
-70 59 -54 88 18 34 40 26 40 -14 l0 -35 50 0 50 0 0 53 c0 44 -4 58 -25 77
-34 32 -116 38 -165 13z"/>
<path d="M1790 2674 c-35 -8 -67 -18 -71 -22 -4 -4 -10 -100 -14 -214 l-7
-208 50 0 c56 0 62 8 62 87 0 41 1 42 43 53 81 20 125 47 147 89 34 68 22 160
-29 205 -27 25 -99 29 -181 10z m108 -96 c7 -7 12 -25 12 -40 0 -21 -8 -33
-32 -48 -41 -25 -73 -27 -64 -4 3 9 6 33 6 54 0 34 3 39 28 43 15 2 29 5 33 6
3 0 10 -4 17 -11z m-168 -290 c0 -36 -3 -49 -10 -42 -10 10 -4 94 6 94 2 0 4
-23 4 -52z"/>
<path d="M2495 2683 c-78 -10 -71 10 -85 -217 -7 -113 -10 -212 -7 -220 7 -18
82 -23 92 -6 4 6 9 36 12 68 5 50 15 71 33 72 3 0 23 -33 44 -72 22 -40 40
-75 42 -77 2 -3 44 21 87 50 6 4 -6 36 -27 74 -36 65 -36 68 -18 81 46 32 67
140 40 199 -22 49 -88 64 -213 48z m115 -121 c0 -16 -8 -36 -18 -45 -17 -15
-72 -40 -77 -35 -2 2 -1 24 2 50 6 49 12 55 66 57 23 1 27 -3 27 -27z"/>
<path d="M2767 2683 c-4 -3 -7 -33 -7 -65 l0 -58 53 6 52 6 -4 -171 -3 -171
56 0 56 0 1 58 c1 31 4 111 8 177 l6 120 50 5 50 5 3 48 3 47 -159 0 c-87 0
-162 -3 -165 -7z m110 -380 c-2 -16 -4 -3 -4 27 0 30 2 43 4 28 2 -16 2 -40 0
-55z"/>
<path d="M3808 2683 c-28 -7 -155 -337 -161 -418 -2 -30 -2 -30 56 -33 57 -3
57 -3 63 27 8 39 19 47 72 56 39 6 42 5 42 -17 0 -61 8 -68 71 -68 70 0 67
-10 39 151 -49 276 -63 310 -128 308 -20 -1 -45 -3 -54 -6z m51 -230 c1 -27
-3 -33 -19 -33 -23 0 -24 8 -8 63 10 32 13 36 19 21 4 -11 8 -34 8 -51z m-58
-10 c-12 -20 -14 -14 -5 12 4 9 9 14 11 11 3 -2 0 -13 -6 -23z m152 -110 c3
-5 8 -24 12 -43 l7 -35 -21 27 c-22 27 -28 58 -12 58 6 0 12 -3 14 -7z"/>
<path d="M4073 2675 c-18 -8 -33 -15 -33 -17 0 -2 24 -71 54 -154 50 -138 54
-156 49 -212 l-6 -62 57 0 c53 0 56 1 56 25 0 14 -4 25 -9 25 -5 0 -9 25 -10
55 0 30 3 55 8 55 5 0 7 -18 6 -40 -1 -22 2 -40 6 -40 5 0 9 15 9 34 0 19 25
94 55 167 30 73 54 134 52 135 -1 1 -18 7 -37 13 l-35 10 43 -5 c26 -4 42 -2
42 5 0 11 -84 26 -98 17 -5 -3 -24 -42 -42 -86 -18 -44 -34 -80 -35 -80 -2 0
-18 38 -36 85 -34 91 -39 95 -96 70z"/>
<path d="M4568 2683 c-31 -8 -180 -425 -159 -446 4 -4 32 -7 61 -5 50 3 53 5
64 38 10 30 17 36 54 43 24 5 46 6 49 4 2 -3 7 -24 10 -46 l6 -41 57 0 c31 0
59 2 62 5 3 3 -6 65 -18 138 -52 291 -63 318 -132 316 -20 -1 -45 -3 -54 -6z
m52 -225 c0 -32 -3 -38 -21 -38 -17 0 -20 4 -15 23 4 12 9 35 13 50 8 38 23
15 23 -35z m106 -168 l7 -35 -22 27 c-12 15 -18 33 -15 43 9 22 22 7 30 -35z"/>
</g>
</svg>
