<?xml version="1.0" standalone="no"?>
<!DOCTYPE svg PUBLIC "-//W3C//DTD SVG 20010904//EN"
 "http://www.w3.org/TR/2001/REC-SVG-20010904/DTD/svg10.dtd">
<svg version="1.0" xmlns="http://www.w3.org/2000/svg"
 width="500.000000pt" height="500.000000pt" viewBox="0 0 500.000000 500.000000"
 preserveAspectRatio="xMidYMid meet">

<g transform="translate(0.000000,500.000000) scale(0.100000,-0.100000)"
fill="#000000" stroke="none">
<path d="M2375 3606 c-177 -34 -372 -115 -515 -217 -92 -65 -230 -202 -293
-291 -95 -133 -157 -265 -204 -432 -34 -124 -44 -403 -18 -541 83 -450 393
-817 823 -974 154 -56 220 -66 427 -66 202 0 244 6 400 56 406 129 725 470
837 896 30 112 31 128 32 308 1 175 -2 199 -27 298 -119 472 -461 819 -929
943 -90 23 -126 27 -283 30 -121 2 -203 -1 -250 -10z m-30 -876 c131 -76 151
-92 166 -137 9 -28 13 -32 25 -22 27 22 35 48 24 69 -6 11 -17 20 -25 20 -26
0 -16 16 19 28 23 9 42 9 59 3 30 -12 39 -24 43 -65 7 -58 14 -61 35 -18 17
33 37 50 102 88 136 79 199 125 259 188 l58 60 -22 -65 c-11 -35 -29 -75 -39
-89 -9 -14 -70 -55 -134 -90 -65 -36 -125 -71 -134 -78 -23 -19 124 54 190 94
31 19 60 34 63 34 14 0 -59 -122 -79 -133 -11 -6 -63 -19 -115 -29 -86 -16
-89 -17 -30 -13 36 3 81 8 100 11 l35 5 -44 -40 c-24 -23 -49 -41 -56 -41 -6
0 -38 9 -71 20 -32 10 -50 14 -39 7 33 -20 75 -65 75 -79 0 -8 -15 -34 -32
-58 l-33 -45 -5 60 c-3 33 -14 75 -24 93 -21 41 -34 36 -13 -5 23 -46 29 -83
17 -119 -13 -39 2 -66 59 -105 27 -19 31 -25 17 -27 -36 -7 -65 9 -90 51 -14
23 -26 38 -26 34 0 -14 32 -71 53 -94 11 -13 18 -26 14 -29 -14 -14 -57 28
-68 65 -15 50 -34 44 -38 -11 -2 -38 2 -45 54 -95 51 -48 54 -53 32 -53 -54 0
-115 89 -101 147 5 18 3 24 -4 19 -7 -4 -3 12 7 36 22 52 41 137 40 181 0 23
-10 2 -33 -70 -17 -56 -34 -105 -37 -108 -3 -3 -20 42 -38 100 -18 58 -35 105
-37 105 -11 0 10 -118 31 -177 18 -51 21 -71 14 -109 -16 -85 -61 -133 -114
-122 -12 2 -7 10 22 32 21 16 47 40 57 53 21 28 28 82 12 101 -8 11 -12 5 -21
-23 -9 -36 -58 -85 -71 -73 -3 3 11 27 30 53 20 25 36 54 36 63 -1 9 -10 0
-21 -20 -22 -42 -45 -58 -85 -58 -26 0 -25 2 19 35 48 37 66 70 48 88 -16 16
-14 81 3 122 20 47 11 44 -14 -5 -11 -22 -20 -59 -20 -85 l0 -47 -24 29 c-55
67 -54 96 7 133 39 24 33 25 -24 5 -54 -19 -73 -15 -124 31 l-40 37 35 -6 c19
-4 64 -9 100 -12 57 -4 54 -3 -32 13 -53 10 -104 24 -112 31 -16 13 -76 112
-76 125 0 4 28 -9 63 -29 81 -47 225 -120 212 -108 -5 6 -64 40 -130 77 -66
38 -132 79 -147 93 -22 21 -68 125 -68 153 0 3 33 -26 73 -65 47 -46 110 -92
182 -135z m321 -607 c17 -23 21 -33 11 -33 -32 0 -68 61 -66 114 0 16 4 12 16
-14 8 -19 26 -50 39 -67z m-103 4 c-11 -19 -29 -33 -43 -35 l-23 -4 25 30 c13
16 31 45 39 63 l14 34 3 -28 c2 -15 -5 -42 -15 -60z m49 -23 c1 -47 -4 -60
-21 -49 -12 7 -14 66 -4 104 5 20 7 21 15 6 6 -9 10 -36 10 -61z m-486 -255
c4 -8 0 -9 -15 -4 -12 3 -21 2 -21 -4 0 -5 9 -13 21 -16 25 -8 22 -38 -5 -43
-10 -2 -23 2 -30 8 -8 9 -6 11 11 6 12 -4 24 -2 28 4 3 5 0 10 -8 10 -19 0
-40 26 -32 40 8 13 42 13 51 -1z m122 -12 c3 -12 -4 -20 -17 -24 -12 -3 -21
-12 -21 -20 0 -8 -4 -11 -10 -8 -11 7 -14 58 -3 69 13 13 48 1 51 -17z m136 1
c15 -25 -3 -52 -37 -56 -21 -3 -28 2 -33 22 -12 49 43 76 70 34z m122 -21 c1
-36 0 -37 -17 -21 -17 15 -24 13 -20 -8 0 -5 -3 -8 -9 -8 -5 0 -10 18 -10 41
0 38 1 40 28 37 24 -3 27 -7 28 -41z m117 36 c-7 -2 -13 -20 -13 -39 0 -19 -4
-34 -10 -34 -5 0 -10 15 -10 34 0 19 -6 37 -12 39 -7 3 3 5 22 5 19 0 29 -2
23 -5z m123 -5 c-3 -7 -7 -25 -10 -40 -4 -19 -13 -28 -26 -28 -11 0 -20 4 -20
10 0 5 7 7 16 3 14 -5 16 0 12 30 -3 30 -1 37 14 37 9 0 16 -6 14 -12z m117
-28 c8 -22 11 -40 6 -40 -5 0 -9 5 -9 10 0 6 -9 10 -20 10 -11 0 -20 -4 -20
-10 0 -5 -4 -10 -9 -10 -5 0 -2 18 6 40 9 22 19 40 23 40 4 0 14 -18 23 -40z
m93 23 c12 -17 13 -17 19 0 4 9 12 17 17 17 6 0 4 -10 -5 -23 -8 -13 -17 -32
-20 -42 -5 -19 -5 -19 -6 0 0 11 -8 31 -17 43 -18 26 -7 30 12 5z m157 -23 c8
-22 11 -40 6 -40 -5 0 -9 5 -9 10 0 14 -38 12 -43 -2 -2 -7 -7 -11 -10 -8 -7
7 23 80 33 80 4 0 14 -18 23 -40z"/>
<path d="M2210 1835 c0 -9 5 -15 11 -13 6 2 11 8 11 13 0 5 -5 11 -11 13 -6 2
-11 -4 -11 -13z"/>
<path d="M2330 1835 c-11 -13 -11 -19 3 -33 20 -19 41 -5 35 24 -4 24 -22 28
-38 9z"/>
<path d="M2470 1835 c0 -9 5 -15 11 -13 6 2 11 8 11 13 0 5 -5 11 -11 13 -6 2
-11 -4 -11 -13z"/>
<path d="M2830 1820 c0 -5 5 -10 10 -10 6 0 10 5 10 10 0 6 -4 10 -10 10 -5 0
-10 -4 -10 -10z"/>
<path d="M3080 1820 c0 -5 5 -10 10 -10 6 0 10 5 10 10 0 6 -4 10 -10 10 -5 0
-10 -4 -10 -10z"/>
</g>
</svg>
